<?xml version="1.0" standalone="no"?>
<!DOCTYPE svg PUBLIC "-//W3C//DTD SVG 20010904//EN"
 "http://www.w3.org/TR/2001/REC-SVG-20010904/DTD/svg10.dtd">
<svg version="1.0" xmlns="http://www.w3.org/2000/svg"
 width="790.000000pt" height="790.000000pt" viewBox="0 0 790.000000 790.000000"
 preserveAspectRatio="xMidYMid meet">
<metadata>
Created by potrace 1.14, written by Peter Selinger 2001-2017
</metadata>
<g transform="translate(0.000000,790.000000) scale(0.100000,-0.100000)"
fill="#000000" stroke="none">
<path d="M1250 6210 c-310 -22 -478 -115 -540 -301 -18 -52 -21 -80 -18 -154
5 -109 33 -181 138 -360 87 -148 219 -415 254 -513 75 -212 74 -516 -4 -816
-51 -196 -117 -377 -359 -969 -153 -373 -193 -526 -193 -722 1 -310 141 -529
401 -626 188 -70 385 -82 1216 -76 694 5 748 9 945 56 361 86 642 307 808 638
75 148 142 409 142 554 0 68 14 79 24 19 13 -83 70 -238 127 -350 293 -570
905 -911 1631 -911 666 0 1207 305 1439 809 76 165 110 332 110 543 1 271 -63
458 -230 682 -150 200 -300 318 -816 641 -373 233 -493 328 -578 458 -55 84
-69 131 -71 228 -1 76 2 90 29 138 16 30 41 60 56 67 26 14 27 13 33 -17 3
-17 6 -61 6 -97 0 -76 21 -157 56 -216 75 -129 210 -181 496 -192 242 -9 346
20 447 127 104 109 145 250 144 505 0 180 -12 244 -68 354 -79 157 -183 254
-375 351 -211 106 -416 151 -690 151 -275 0 -467 -29 -685 -102 -207 -71 -350
-153 -466 -268 -162 -162 -230 -339 -230 -596 0 -309 94 -530 320 -754 125
-123 302 -226 746 -431 255 -118 392 -205 432 -275 18 -31 23 -56 23 -112 0
-124 -43 -213 -123 -256 -37 -19 -57 -22 -157 -22 -206 1 -251 39 -405 342
-82 163 -133 231 -199 266 -34 17 -62 22 -160 25 -144 5 -339 -12 -442 -38
-261 -67 -416 -250 -442 -522 l-8 -83 -13 60 c-84 391 -327 785 -628 1019 -35
27 -63 51 -63 54 0 2 17 25 39 51 74 89 135 219 162 346 19 88 16 304 -5 395
-89 388 -392 719 -771 843 -181 60 -173 59 -795 62 -316 2 -627 -1 -690 -5z
m1320 -183 c249 -61 475 -208 606 -395 118 -168 174 -325 181 -507 6 -139 -12
-231 -68 -344 -48 -97 -139 -196 -232 -251 -31 -19 -57 -37 -56 -40 0 -3 32
-20 70 -38 379 -181 692 -630 780 -1118 28 -157 31 -424 6 -564 -78 -427 -337
-733 -722 -854 -216 -68 -337 -76 -1126 -76 -665 0 -800 6 -936 40 -250 64
-383 236 -383 496 0 153 56 337 240 784 273 663 342 888 371 1205 19 218 0
393 -62 573 -37 105 -176 391 -255 522 -101 170 -127 232 -127 308 2 172 109
250 378 276 22 2 317 2 655 1 524 -2 625 -4 680 -18z m3407 12 c329 -36 628
-188 730 -370 59 -104 68 -148 68 -324 0 -172 -10 -232 -53 -323 -27 -58 -65
-89 -142 -118 -35 -13 -77 -17 -183 -16 -210 1 -324 29 -380 91 -42 46 -45 59
-56 226 -5 90 -13 141 -25 163 -47 91 -226 75 -320 -28 -141 -156 -145 -419
-11 -620 116 -174 209 -247 713 -563 324 -203 451 -295 568 -412 114 -113 180
-204 235 -321 48 -100 67 -171 80 -299 27 -254 -37 -517 -174 -720 -52 -76
-184 -213 -261 -271 -264 -199 -655 -309 -1036 -291 -439 21 -864 199 -1139
478 -270 273 -400 597 -403 999 -2 219 31 320 132 412 98 91 191 116 457 125
135 4 190 3 212 -7 36 -15 66 -61 143 -221 150 -314 269 -403 538 -403 129 1
208 21 286 74 135 93 200 321 144 504 -26 83 -67 137 -155 204 -70 52 -301
173 -550 286 -371 170 -542 294 -671 487 -93 141 -128 267 -128 464 0 138 16
214 68 320 106 215 370 376 732 445 201 38 409 48 581 29z"/>
<path d="M2249 5357 c-120 -41 -212 -124 -271 -245 -29 -58 -33 -76 -33 -147
0 -71 4 -86 31 -135 35 -63 106 -122 174 -145 84 -29 220 -40 324 -27 116 14
186 40 248 89 180 143 114 433 -132 580 -93 56 -230 68 -341 30z m239 -167
c50 -23 132 -103 155 -153 37 -78 9 -153 -71 -190 -40 -18 -65 -22 -172 -22
-147 0 -207 14 -256 60 -29 28 -34 39 -34 79 0 27 8 63 19 85 28 54 106 128
155 145 60 21 152 19 204 -4z"/>
<path d="M2444 4319 c-260 -31 -504 -300 -544 -602 -23 -167 26 -312 140 -421
109 -104 248 -147 477 -147 222 0 369 48 484 158 116 111 161 271 124 445 -31
150 -110 293 -220 396 -142 136 -291 191 -461 171z m214 -200 c219 -108 358
-382 295 -580 -24 -75 -107 -159 -186 -188 -134 -49 -373 -48 -506 1 -77 29
-161 114 -184 187 -48 149 11 339 148 477 141 142 284 177 433 103z"/>
</g>
</svg>
